<svg id="Layer_1" enable-background="new 0 0 511.971 511.971" height="512" viewBox="0 0 511.971 511.971" width="512" xmlns="http://www.w3.org/2000/svg"><g><path d="m496.868 209.994-61.844-32.605v73.988z"/><path d="m511.902 490.059v-254.029l-166.693 111.544z"/><path d="m255.986 371.182 149.038-99.73v-271.452h-298.077v271.452zm.012-292.988 29.874 60.358 66.636 9.76-48.172 47.063 11.309 66.39-59.646-31.27-59.646 31.271 11.309-66.39-48.172-47.063 66.635-9.76z"/><path d="m76.947 177.389-61.844 32.605 61.844 41.383z"/><path d="m.069 236.03v254.029l166.699-142.481z"/><path d="m319.312 364.904-63.326 42.375-63.32-42.371-172.06 147.063h470.759z"/><path d="m236.104 207.052 19.894-10.429 19.894 10.43-3.771-22.144 16.066-15.697-22.226-3.255-9.963-20.132-9.964 20.132-22.225 3.255 16.066 15.697z"/></g></svg>